<svg width="105" height="36" viewBox="0 0 105 36" fill="none" xmlns="http://www.w3.org/2000/svg">
<path d="M20.204 30.428L16.388 25.856C15.332 26.12 14.252 26.252 13.148 26.252C10.796 26.252 8.636 25.7 6.668 24.596C4.7 23.492 3.14 21.968 1.988 20.024C0.836 18.056 0.26 15.836 0.26 13.364C0.26 10.916 0.836 8.72 1.988 6.776C3.14 4.808 4.7 3.272 6.668 2.168C8.636 1.064 10.796 0.512 13.148 0.512C15.524 0.512 17.684 1.064 19.628 2.168C21.596 3.272 23.144 4.808 24.272 6.776C25.424 8.72 26 10.916 26 13.364C26 15.596 25.52 17.636 24.56 19.484C23.624 21.308 22.34 22.796 20.708 23.948L26.468 30.428H20.204ZM5.444 13.364C5.444 15.044 5.768 16.52 6.416 17.792C7.064 19.064 7.964 20.048 9.116 20.744C10.292 21.416 11.636 21.752 13.148 21.752C14.66 21.752 15.992 21.416 17.144 20.744C18.296 20.048 19.196 19.064 19.844 17.792C20.492 16.52 20.816 15.044 20.816 13.364C20.816 11.684 20.492 10.22 19.844 8.972C19.196 7.7 18.296 6.728 17.144 6.056C15.992 5.384 14.66 5.048 13.148 5.048C11.636 5.048 10.292 5.384 9.116 6.056C7.964 6.728 7.064 7.7 6.416 8.972C5.768 10.22 5.444 11.684 5.444 13.364ZM46.9199 0.872V4.94H40.2239V26H35.1839V4.94H28.4879V0.872H46.9199ZM49.3013 15.956C49.3013 13.94 49.6973 12.152 50.4893 10.592C51.3053 9.032 52.3973 7.832 53.7653 6.992C55.1573 6.152 56.7053 5.732 58.4093 5.732C59.8973 5.732 61.1933 6.032 62.2973 6.632C63.4253 7.232 64.3253 7.988 64.9973 8.9V6.056H70.0733V26H64.9973V23.084C64.3493 24.02 63.4493 24.8 62.2973 25.424C61.1693 26.024 59.8613 26.324 58.3733 26.324C56.6933 26.324 55.1573 25.892 53.7653 25.028C52.3973 24.164 51.3053 22.952 50.4893 21.392C49.6973 19.808 49.3013 17.996 49.3013 15.956ZM64.9973 16.028C64.9973 14.804 64.7573 13.76 64.2773 12.896C63.7973 12.008 63.1493 11.336 62.3333 10.88C61.5173 10.4 60.6413 10.16 59.7053 10.16C58.7693 10.16 57.9053 10.388 57.1133 10.844C56.3213 11.3 55.6733 11.972 55.1693 12.86C54.6893 13.724 54.4493 14.756 54.4493 15.956C54.4493 17.156 54.6893 18.212 55.1693 19.124C55.6733 20.012 56.3213 20.696 57.1133 21.176C57.9293 21.656 58.7933 21.896 59.7053 21.896C60.6413 21.896 61.5173 21.668 62.3333 21.212C63.1493 20.732 63.7973 20.06 64.2773 19.196C64.7573 18.308 64.9973 17.252 64.9973 16.028ZM80.0357 8.936C80.6837 8.024 81.5717 7.268 82.6997 6.668C83.8517 6.044 85.1597 5.732 86.6237 5.732C88.3277 5.732 89.8637 6.152 91.2317 6.992C92.6237 7.832 93.7157 9.032 94.5077 10.592C95.3237 12.128 95.7317 13.916 95.7317 15.956C95.7317 17.996 95.3237 19.808 94.5077 21.392C93.7157 22.952 92.6237 24.164 91.2317 25.028C89.8637 25.892 88.3277 26.324 86.6237 26.324C85.1597 26.324 83.8637 26.024 82.7357 25.424C81.6317 24.824 80.7317 24.068 80.0357 23.156V35.504H74.9957V6.056H80.0357V8.936ZM90.5837 15.956C90.5837 14.756 90.3317 13.724 89.8277 12.86C89.3477 11.972 88.6997 11.3 87.8837 10.844C87.0917 10.388 86.2277 10.16 85.2917 10.16C84.3797 10.16 83.5157 10.4 82.6997 10.88C81.9077 11.336 81.2597 12.008 80.7557 12.896C80.2757 13.784 80.0357 14.828 80.0357 16.028C80.0357 17.228 80.2757 18.272 80.7557 19.16C81.2597 20.048 81.9077 20.732 82.6997 21.212C83.5157 21.668 84.3797 21.896 85.2917 21.896C86.2277 21.896 87.0917 21.656 87.8837 21.176C88.6997 20.696 89.3477 20.012 89.8277 19.124C90.3317 18.236 90.5837 17.18 90.5837 15.956ZM101.626 26.252C100.714 26.252 99.9582 25.976 99.3582 25.424C98.7822 24.848 98.4942 24.14 98.4942 23.3C98.4942 22.46 98.7822 21.764 99.3582 21.212C99.9582 20.636 100.714 20.348 101.626 20.348C102.514 20.348 103.246 20.636 103.822 21.212C104.398 21.764 104.686 22.46 104.686 23.3C104.686 24.14 104.398 24.848 103.822 25.424C103.246 25.976 102.514 26.252 101.626 26.252Z" fill="#151515"/>
</svg>
