<?xml version="1.0" standalone="no"?>
<!DOCTYPE svg PUBLIC "-//W3C//DTD SVG 20010904//EN"
 "http://www.w3.org/TR/2001/REC-SVG-20010904/DTD/svg10.dtd">
<svg version="1.0" xmlns="http://www.w3.org/2000/svg"
 width="2655.000000pt" height="2655.000000pt" viewBox="0 0 2655.000000 2655.000000"
 preserveAspectRatio="xMidYMid meet">
<metadata>
Created by potrace 1.14, written by Peter Selinger 2001-2017
</metadata>
<g transform="translate(0.000000,2655.000000) scale(0.100000,-0.100000)"
fill="#000000" stroke="none">
<path d="M12489 26546 c-2 -2 -76 -6 -164 -10 -88 -4 -185 -8 -215 -11 -30 -2
-100 -6 -155 -10 -55 -3 -118 -8 -140 -10 -22 -3 -71 -7 -110 -10 -38 -3 -88
-8 -110 -10 -22 -3 -67 -7 -100 -10 -33 -3 -78 -8 -100 -10 -104 -13 -373 -46
-395 -50 -14 -2 -47 -7 -75 -11 -27 -3 -59 -8 -70 -10 -10 -2 -37 -6 -60 -9
-56 -8 -226 -37 -295 -50 -39 -7 -49 -9 -105 -19 -22 -4 -119 -23 -215 -43
-96 -19 -185 -36 -197 -39 -12 -2 -71 -16 -130 -30 -60 -14 -116 -28 -125 -30
-10 -2 -27 -6 -38 -9 -11 -3 -28 -7 -37 -9 -10 -2 -65 -16 -123 -31 -58 -15
-112 -28 -120 -30 -167 -39 -657 -191 -1015 -315 -149 -52 -559 -212 -642
-250 -24 -11 -45 -20 -48 -20 -2 0 -28 -11 -57 -24 -29 -13 -107 -48 -173 -77
-66 -29 -138 -62 -160 -74 -22 -12 -94 -50 -160 -85 -229 -120 -430 -236 -808
-464 -51 -31 -424 -278 -510 -338 -43 -30 -87 -61 -98 -69 -110 -76 -550 -408
-624 -470 -11 -10 -40 -34 -65 -54 -107 -87 -350 -294 -460 -394 -331 -298
-655 -621 -995 -995 -23 -25 -239 -273 -259 -296 -12 -14 -42 -50 -67 -80
-358 -426 -782 -1014 -1100 -1530 -101 -162 -262 -437 -319 -545 -18 -33 -41
-73 -50 -90 -10 -16 -39 -70 -65 -120 -27 -49 -52 -96 -58 -102 -5 -7 -7 -13
-4 -13 3 0 -9 -26 -26 -57 -45 -79 -267 -536 -267 -548 0 -2 -18 -43 -41 -92
-22 -48 -70 -158 -106 -243 -35 -85 -71 -168 -78 -185 -41 -89 -178 -458 -265
-710 -63 -183 -203 -626 -215 -682 -2 -10 -13 -49 -24 -88 -19 -69 -90 -336
-96 -365 -2 -8 -22 -91 -44 -185 -37 -158 -92 -417 -106 -496 -3 -19 -12 -65
-20 -104 -8 -38 -16 -86 -19 -105 -8 -51 -16 -92 -21 -116 -3 -12 -7 -39 -10
-60 -4 -21 -13 -82 -21 -134 -16 -98 -19 -120 -30 -204 -3 -27 -7 -56 -9 -65
-1 -9 -6 -45 -10 -81 -4 -36 -8 -67 -10 -70 -1 -3 -6 -41 -10 -84 -4 -43 -8
-86 -10 -95 -1 -9 -6 -47 -9 -86 -4 -38 -9 -86 -11 -105 -2 -19 -7 -66 -10
-105 -3 -38 -8 -92 -10 -120 -3 -27 -7 -90 -10 -140 -3 -49 -8 -115 -10 -145
-14 -196 -19 -422 -19 -835 -1 -405 3 -590 19 -830 1 -27 6 -101 10 -163 3
-62 8 -120 10 -130 1 -9 6 -57 10 -107 3 -49 8 -101 10 -115 2 -14 7 -54 10
-90 8 -79 14 -133 20 -180 2 -19 9 -73 15 -120 15 -120 44 -323 55 -390 2 -14
7 -43 10 -65 4 -22 13 -78 21 -125 9 -47 18 -98 20 -115 3 -16 12 -64 20 -105
8 -41 19 -97 24 -125 5 -27 23 -115 40 -195 17 -80 34 -156 36 -170 3 -14 14
-61 26 -105 11 -44 21 -89 23 -100 5 -28 34 -144 46 -182 5 -18 12 -42 14 -53
7 -34 84 -317 117 -425 16 -55 40 -136 54 -180 65 -219 269 -796 334 -950 5
-11 27 -67 50 -125 43 -106 145 -348 182 -430 203 -447 366 -770 603 -1190 48
-85 93 -162 100 -170 7 -8 14 -19 16 -25 5 -12 88 -152 127 -212 15 -23 40
-63 56 -90 33 -55 273 -420 287 -437 5 -6 68 -94 140 -196 166 -233 491 -658
564 -736 5 -6 26 -31 45 -54 78 -95 186 -219 335 -386 191 -212 676 -703 844
-854 46 -41 93 -84 105 -95 72 -69 432 -374 596 -506 299 -239 797 -602 938
-684 17 -11 32 -23 32 -27 0 -4 4 -8 10 -8 5 0 60 -33 122 -73 376 -244 959
-571 1223 -687 66 -29 144 -63 173 -76 29 -13 55 -24 57 -24 3 0 27 -9 53 -21
72 -32 81 -36 173 -73 231 -94 637 -239 940 -335 88 -28 463 -138 499 -146 8
-2 134 -33 280 -69 146 -36 276 -67 290 -70 14 -3 102 -21 195 -41 94 -19 186
-38 205 -41 19 -3 42 -7 50 -9 8 -2 29 -7 45 -9 17 -3 95 -16 175 -30 80 -14
165 -28 190 -31 45 -6 74 -11 128 -20 15 -2 83 -11 152 -20 69 -9 136 -18 150
-20 23 -3 87 -11 170 -20 19 -2 64 -7 100 -10 36 -4 76 -8 90 -10 14 -2 66 -7
115 -10 50 -4 101 -8 115 -10 14 -1 77 -6 140 -10 63 -4 131 -8 150 -10 133
-13 437 -20 885 -19 447 0 624 4 865 19 163 10 260 17 295 20 22 2 72 7 110
10 39 3 88 7 110 10 22 2 72 7 110 10 39 4 81 8 95 10 14 2 50 6 80 10 123 14
324 40 391 51 15 2 44 6 65 9 22 3 48 7 59 9 19 3 77 13 140 22 17 3 82 14
145 25 63 12 129 23 145 26 17 2 107 20 200 40 94 19 181 37 195 39 40 8 389
91 455 109 33 9 69 18 80 20 11 3 61 16 110 30 50 14 99 28 111 30 55 12 386
115 609 189 450 151 853 311 1315 522 47 21 202 97 345 169 143 71 267 130
275 129 8 -1 303 -83 655 -184 352 -101 654 -186 670 -191 31 -8 107 -29 355
-99 80 -23 154 -43 164 -45 10 -3 91 -25 180 -51 89 -25 169 -48 180 -50 10
-2 42 -10 70 -18 28 -8 76 -22 106 -30 53 -14 186 -51 300 -82 30 -9 71 -20
90 -25 19 -5 42 -12 50 -14 41 -12 137 -37 150 -40 8 -2 49 -13 90 -25 41 -11
82 -23 90 -25 59 -15 419 -112 585 -157 61 -16 126 -33 145 -38 67 -16 275
-71 306 -81 17 -5 40 -11 50 -13 10 -2 48 -12 84 -21 36 -9 72 -19 80 -21 8
-2 123 -31 255 -65 756 -193 1433 -351 1780 -414 11 -2 34 -7 50 -10 17 -3 48
-8 70 -11 22 -3 47 -7 56 -10 9 -2 34 -7 55 -10 22 -3 50 -7 64 -10 14 -2 87
-7 162 -10 117 -6 141 -4 162 10 32 20 42 72 25 120 -22 61 -193 244 -403 431
-84 75 -176 156 -195 171 -13 10 -28 24 -35 29 -42 38 -169 146 -205 175 -24
19 -49 41 -57 48 -7 7 -69 58 -136 113 -68 55 -134 110 -148 122 -29 25 -761
611 -842 674 -86 67 -272 213 -288 226 -20 16 -213 166 -304 236 -39 30 -76
60 -82 65 -7 6 -24 20 -40 31 -15 11 -53 40 -84 65 -53 41 -133 103 -325 249
-38 29 -83 64 -100 77 -16 13 -93 72 -170 130 -77 59 -141 111 -143 116 -2 4
-8 8 -13 8 -5 0 -49 31 -97 68 -48 38 -193 149 -322 246 -129 97 -242 182
-250 189 -8 7 -50 38 -93 70 -43 32 -97 75 -121 95 -24 20 -52 44 -62 52 -39
31 -129 105 -134 110 -6 6 -178 149 -204 170 -11 8 -35 29 -55 46 -20 17 -193
161 -386 320 -192 159 -355 293 -361 299 -6 5 -30 26 -54 45 -46 37 -75 61
-460 380 -129 107 -242 200 -250 207 -27 22 -404 335 -450 373 -25 21 -74 61
-110 91 -36 29 -67 55 -70 58 -3 4 -27 24 -55 46 -27 22 -55 44 -61 50 -6 5
-136 114 -289 240 -153 127 -376 311 -496 410 -119 99 -234 194 -255 212 -22
17 -50 41 -64 53 -14 11 -35 30 -48 41 -16 13 -28 17 -35 11 -7 -5 -79 -62
-162 -127 -82 -65 -197 -157 -255 -205 -645 -534 -1368 -937 -2170 -1211 -195
-67 -498 -154 -680 -194 -204 -46 -420 -87 -575 -111 -27 -4 -57 -9 -65 -10
-8 -2 -42 -6 -75 -10 -33 -3 -67 -7 -75 -9 -8 -2 -49 -6 -90 -10 -41 -4 -82
-8 -90 -10 -14 -2 -144 -14 -235 -20 -116 -8 -410 -18 -550 -18 -171 0 -537
10 -570 17 -11 2 -67 7 -125 11 -58 4 -118 8 -135 10 -16 2 -59 7 -95 11 -36
3 -72 8 -81 9 -9 2 -40 6 -70 10 -30 3 -97 13 -149 22 -52 8 -108 17 -125 19
-16 3 -64 11 -105 19 -41 8 -86 16 -100 19 -14 2 -69 14 -124 26 -54 12 -106
23 -115 25 -280 58 -824 235 -1136 370 -46 20 -88 38 -95 40 -58 20 -406 195
-560 281 -239 133 -381 223 -625 392 -135 94 -468 357 -541 427 -11 11 -54 49
-95 85 -99 86 -802 794 -924 931 -94 105 -163 184 -216 249 -30 36 -56 67 -59
70 -16 16 -146 183 -233 300 -26 36 -54 73 -62 83 -15 17 -230 332 -250 364
-5 9 -33 53 -61 98 -277 438 -575 1050 -756 1550 -125 347 -263 819 -312 1065
-3 14 -20 102 -39 195 -20 94 -38 192 -42 219 -3 27 -8 52 -9 55 -2 3 -6 29
-10 56 -3 28 -8 59 -10 70 -2 11 -7 43 -10 70 -12 98 -18 140 -21 165 -2 14
-7 52 -10 85 -4 33 -8 74 -10 92 -2 17 -7 69 -10 115 -4 45 -8 99 -10 118 -25
220 -24 991 0 1225 2 22 7 72 10 110 10 121 23 254 30 300 3 17 7 50 10 75 2
25 7 56 9 70 3 14 7 48 11 75 18 154 74 445 130 680 13 55 26 113 29 128 3 16
10 43 16 61 6 18 12 42 14 52 2 11 10 39 17 64 7 25 13 50 14 55 22 107 186
590 283 835 119 299 313 710 442 939 401 706 787 1226 1316 1771 77 80 186
195 242 256 447 492 973 923 1527 1253 94 55 179 106 190 113 96 58 442 227
615 302 211 90 623 241 740 271 8 2 65 18 125 35 97 28 201 55 245 65 8 2 47
11 85 20 73 17 288 62 340 71 17 2 37 7 45 9 8 2 33 7 55 10 23 3 50 7 60 9
11 2 45 7 75 11 30 4 63 9 74 11 10 2 44 6 75 10 31 3 65 8 76 10 11 2 49 7
85 10 36 3 76 7 90 9 14 2 66 7 115 10 50 4 110 8 135 11 239 22 796 22 1135
-1 68 -5 199 -16 230 -20 17 -2 62 -7 100 -10 39 -3 77 -8 85 -10 8 -2 42 -7
75 -10 33 -3 69 -8 80 -10 11 -3 36 -7 55 -9 59 -8 113 -16 160 -26 25 -5 72
-14 105 -20 33 -5 71 -12 85 -15 14 -3 39 -8 55 -10 17 -3 38 -8 47 -11 9 -3
27 -7 40 -9 42 -8 213 -47 228 -53 8 -3 20 -6 26 -7 42 -9 299 -83 399 -115
213 -68 473 -166 692 -261 93 -41 499 -243 573 -286 19 -11 61 -35 93 -54 31
-19 70 -41 85 -50 187 -106 577 -378 783 -547 86 -70 209 -173 224 -188 6 -7
88 -74 181 -149 93 -75 174 -142 179 -149 6 -6 28 -26 50 -45 257 -218 619
-594 865 -901 19 -24 40 -48 45 -54 6 -6 22 -27 35 -46 13 -19 27 -37 30 -40
6 -5 125 -165 182 -245 119 -167 300 -457 422 -675 36 -63 258 -510 289 -580
8 -19 27 -64 42 -100 14 -36 32 -78 40 -95 7 -16 25 -61 40 -100 15 -38 31
-79 36 -90 23 -53 155 -441 175 -515 2 -8 17 -62 34 -120 29 -101 98 -363 106
-405 2 -11 17 -83 33 -160 17 -77 33 -156 36 -175 3 -19 10 -62 16 -95 13 -71
13 -70 33 -210 26 -175 30 -208 41 -310 3 -33 8 -76 10 -95 3 -19 7 -69 11
-110 3 -41 7 -95 9 -120 25 -306 25 -935 0 -1245 -8 -103 -16 -198 -20 -233
-12 -135 -17 -175 -20 -192 -2 -10 -6 -47 -10 -81 -7 -73 -10 -93 -24 -179 -5
-36 -12 -83 -16 -105 -5 -38 -21 -132 -31 -185 -2 -14 -11 -63 -20 -110 -72
-406 -227 -973 -393 -1442 -91 -256 -319 -802 -381 -911 -10 -18 -10 -18 405
-324 33 -25 71 -53 85 -63 26 -19 116 -86 159 -118 13 -9 133 -98 266 -197
134 -99 332 -245 440 -325 108 -80 205 -152 216 -160 10 -8 38 -29 61 -46 24
-17 149 -110 278 -206 129 -95 296 -218 370 -273 74 -54 140 -103 145 -107 17
-14 357 -266 590 -436 61 -45 115 -85 120 -89 6 -5 156 -117 335 -248 355
-262 689 -510 705 -522 6 -5 33 -25 62 -46 l51 -37 73 127 c113 200 127 227
200 367 66 126 279 554 279 561 0 2 23 51 50 110 28 59 50 108 50 110 0 2 13
32 29 67 16 35 48 108 70 163 23 55 46 109 51 120 82 177 286 746 369 1025 37
126 145 525 166 615 2 6 10 37 18 70 9 33 18 72 21 88 3 15 7 35 10 45 3 9 7
28 10 42 2 14 11 52 19 85 9 33 18 77 21 99 4 21 8 41 10 45 2 3 7 22 10 41 3
19 8 44 10 55 6 26 44 221 51 260 2 17 7 41 10 55 4 20 32 183 49 285 4 20 10
66 21 135 2 19 6 44 9 55 2 11 7 45 10 76 4 31 9 67 11 80 3 12 7 45 10 73 3
28 8 69 11 91 10 72 12 89 19 155 4 36 9 79 11 95 2 17 6 57 9 90 3 33 7 78
10 100 2 22 7 72 10 110 3 39 8 95 11 125 47 527 61 1454 29 2015 -13 224 -22
364 -30 455 -3 30 -7 84 -10 120 -3 36 -7 81 -10 100 -2 19 -7 71 -10 114 -4
43 -8 86 -10 95 -2 9 -6 48 -9 86 -4 39 -8 81 -11 95 -2 14 -7 48 -10 75 -3
28 -8 61 -10 75 -2 14 -6 48 -10 75 -3 28 -8 61 -10 75 -3 21 -13 92 -30 216
-2 17 -6 37 -9 45 -3 8 -7 32 -10 54 -9 71 -16 119 -22 145 -3 14 -8 36 -10
50 -7 40 -24 133 -30 165 -17 95 -78 382 -109 520 -21 88 -41 176 -45 195 -4
19 -26 107 -50 195 -23 88 -43 165 -44 170 -14 56 -85 304 -111 385 -8 25 -26
81 -39 125 -55 180 -248 698 -321 860 -8 17 -39 90 -70 164 -32 74 -77 177
-101 229 -24 52 -44 96 -44 99 0 8 -294 599 -350 703 -241 446 -625 1069 -844
1367 -17 23 -49 68 -71 99 -128 183 -442 590 -594 768 -73 86 -275 319 -296
342 -5 6 -48 53 -95 104 -527 580 -1158 1153 -1785 1622 -93 70 -174 131 -180
136 -36 28 -307 217 -445 309 -227 151 -373 239 -570 346 -41 22 -115 63 -165
89 -88 48 -517 261 -625 311 -166 76 -503 220 -625 266 -33 13 -69 27 -80 32
-25 11 -367 140 -380 143 -5 1 -113 36 -240 78 -301 100 -818 249 -1015 292
-51 11 -109 25 -260 59 -137 31 -263 57 -355 74 -16 3 -34 6 -40 8 -41 9 -295
53 -345 60 -25 3 -52 8 -60 10 -8 2 -35 7 -60 10 -25 3 -52 8 -60 10 -8 2 -42
6 -75 10 -33 3 -67 8 -75 10 -8 2 -37 6 -65 10 -27 3 -63 8 -80 10 -16 2 -73
9 -125 15 -52 6 -108 13 -125 15 -35 4 -117 13 -195 20 -30 2 -77 7 -105 9
-27 3 -86 8 -130 11 -44 4 -100 8 -125 10 -25 2 -94 7 -155 10 -60 4 -139 9
-175 11 -79 5 -1206 14 -1211 10z"/>
</g>
</svg>
